# xmcd
# 
# Track frame offsets:
#     182
#     23170
#     38630
#     54432
#     70577
#     83595
#     86960
#     100372
#     115882
#     124955
#     136467
#     146882
#     160300
#     174002
#     184002
#     190710
# 
# Disc length: 2721
# 
# Revision: 3
# Processed by: cddbd v1.5.2PL0 Copyright (c) Steve Scherf et al.
# Submitted via: fre:ac v1.0.31
# 
DISCID=d50a9f10
DTITLE=Marilyn Monroe - My Heart Belongs To Daddy
DYEAR=1989
DGENRE=Jazz
TTITLE0=My Heart Belongs To Daddy
TTITLE1=Bye Bye Baby
TTITLE2=Diamonds Are A Girl's Best Friend
TTITLE3=Lazy
TTITLE4=Every Baby Needs A Da-Da-Daddy
TTITLE5=Happy Birthday For President Kennedy
TTITLE6=Kiss
TTITLE7=When Love Goes Wrong Nothing Goes Right
TTITLE8=One Silver Dollar
TTITLE9=I'm Through With Love
TTITLE10=(This Is ) A Fine Romance
TTITLE11=When I Fall In Love
TTITLE12=You'd Be Surprised
TTITLE13=The River Of No Return
TTITLE14=Anyone Can See I Love You
TTITLE15=I Wanna Be Loved By You
EXTD=
EXTT0=
EXTT1=
EXTT2=
EXTT3=
EXTT4=
EXTT5=
EXTT6=
EXTT7=
EXTT8=
EXTT9=
EXTT10=
EXTT11=
EXTT12=
EXTT13=
EXTT14=
EXTT15=
PLAYORDER=
